PathFileType	4	(x/y/z)	S08_P20_T11
DataRate	CameraRate	NumFrames	NumMarkers	Units	OrigDataRate	OrigDataStartFrame	OrigNumFrames
240	240	9	51	mm	240	97	386
Frame#	Time	Sternum			R.Acromium			L.Acromium			Top.Head			R.ASIS			L.ASIS			R.PSIS			L.PSIS			R.Great.Tro			L.Great.Tro			R.Iliac.Crest			L.Iliac.Crest			V.Sacral			R.Thigh.Upper.Post			R.Thigh.Lower.Ant			R.Thigh.Lower.Post			R.Thigh.Upper.Ant			R.Knee.Lat			R.Knee.Med			R.Shank.Upper.Post			R.Shank.Lower.Ant			R.Shank.Lower.Post			R.Shank.Upper.Ant			R.Ankle.Lat			R.Ankle.Med			R.Heel.Upper			R.Heel.Med			R.Heel.Lat			R.Toe.Lat			R.Toe.Med			R.Toe.Tip			L.Thigh.Upper.Post			L.Thigh.Lower.Ant			L.Thigh.Lower.Post			L.Thigh.Upper.Ant			L.Knee.Lat			L.Knee.Med			L.Shank.Upper.Post			L.Shank.Lower.Ant			L.Shank.Lower.Post			L.Shank.Upper.Ant			L.Ankle.Lat			L.Ankle.Med			L.Heel.Upper			L.Heel.Med			L.Heel.Lat			L.Toe.Lat			L.Toe.Med			L.Toe.Tip			Cervical.Spine			Back			
		X1	Y1	Z1	X2	Y2	Z2	X3	Y3	Z3	X4	Y4	Z4	X5	Y5	Z5	X6	Y6	Z6	X7	Y7	Z7	X8	Y8	Z8	X9	Y9	Z9	X10	Y10	Z10	X11	Y11	Z11	X12	Y12	Z12	X13	Y13	Z13	X14	Y14	Z14	X15	Y15	Z15	X16	Y16	Z16	X17	Y17	Z17	X18	Y18	Z18	X19	Y19	Z19	X20	Y20	Z20	X21	Y21	Z21	X22	Y22	Z22	X23	Y23	Z23	X24	Y24	Z24	X25	Y25	Z25	X26	Y26	Z26	X27	Y27	Z27	X28	Y28	Z28	X29	Y29	Z29	X30	Y30	Z30	X31	Y31	Z31	X32	Y32	Z32	X33	Y33	Z33	X34	Y34	Z34	X35	Y35	Z35	X36	Y36	Z36	X37	Y37	Z37	X38	Y38	Z38	X39	Y39	Z39	X40	Y40	Z40	X41	Y41	Z41	X42	Y42	Z42	X43	Y43	Z43	X44	Y44	Z44	X45	Y45	Z45	X46	Y46	Z46	X47	Y47	Z47	X48	Y48	Z48	X49	Y49	Z49	X50	Y50	Z50	X51	Y51	Z51	

97	0.4	-795.96	1234.7	292.24	-914.25	1472	469.98	-928.2	1502.3	136.68	-905.83	1790.7	323.17	-833.19	1024.1	399.57	-831.49	1022.7	169.44	-1036	1043.3	327.08	-1031.3	1048	233.96	-882.41	915.78	473.08	-927.8	916.97	105.36	-929.02	1089.3	447.85	-925.34	1103.9	141.49	-1049.6	1005.6	280.77	-813.61	721.9	456.88	-702.04	665.37	422.75	-769.64	643.48	435.66	-741	750.25	442.69	-698.98	564.2	419.34	-726.87	558.23	294.58	-759.95	380.93	428.71	-700.1	317.42	407.56	-761.73	304.29	422.61	-698.18	395.27	416.69	-767.45	136.44	389.39	-734.19	151.83	313.1	-814.65	100.64	339.44	-798.71	74.58	312.32	-809.75	75.056	373.02	NaN	NaN	NaN	-613.19	80.532	312.71	-553.81	98.738	362.4	-971.61	715.57	121.39	-898.81	616.18	151.68	-967.52	625.08	141.89	-901.26	702.17	125.7	-973.33	522.11	165.36	-972.43	523.42	290.85	-1062.1	352.36	165.76	-1011.5	256.48	192.93	-1077.5	281.68	183.51	-1005.7	327.66	177.21	-1086	107.43	206.53	-1065.9	108.3	293.16	-1142.7	78.717	254.99	-1132.2	43.179	283.69	-1136	54.207	220.32	-960.62	40.48	188.57	-943.46	38.882	304.39	-878.23	53.872	256.37	-985.62	1528.6	297.39	-1035.3	1248.4	298.98
98	0.40417	-790.65	1233.9	292.3	-908.75	1471.2	470.09	-922.52	1501.7	136.79	-900.43	1790	323.35	-827.73	1023.6	399.61	-826.32	1022.1	169.44	-1030.5	1042.6	327.46	-1025.9	1047.3	234.37	-876.73	915.29	473.24	-922.94	916.44	105.54	-923.63	1088.7	448.06	-920.23	1103.2	141.72	-1044.3	1004.9	281.18	-808.67	721.16	457.08	-697.32	664.35	422.8	-764.91	642.62	435.95	-736.05	749.34	442.63	-693.88	563.49	419.37	-722.37	556.94	294.8	-750.69	378.96	429.06	-689.4	316.86	407.46	-750.64	302.26	422.83	-689.33	394.82	416.83	-752.17	134.06	389.36	-719.33	150.31	312.94	-798.68	97.203	339.51	-782.07	71.508	312.3	-792.93	71.678	373.08	NaN	NaN	NaN	-596.8	82.067	312.07	-537.71	101.7	361.57	-968.3	715.67	121.63	-896	615.78	151.57	-964.46	625.24	141.85	-897.97	701.81	125.68	-971.22	522.13	165.4	-969.88	523.32	290.92	-1061	352.72	166.05	-1010.6	256.63	192.97	-1076.5	282.17	183.67	-1005.6	327.23	178.01	-1085.5	107.91	206.79	-1065.5	108.53	293.39	-1142.6	79.002	255.37	-1132	43.353	284.01	-1135.9	54.494	220.66	-960.59	40.491	188.6	-943.35	38.788	304.41	-878.05	53.634	256.34	-980.04	1527.9	297.41	-1029.9	1247.8	299.01
99	0.40833	-785.34	1233	292.38	-903.24	1470.4	470.21	-916.84	1501	136.91	-895.02	1789.2	323.54	-822.25	1023.1	399.66	-821.14	1021.4	169.45	-1025	1041.9	327.86	-1020.4	1046.5	234.79	-871.07	914.74	473.41	-918.1	915.91	105.72	-918.2	1088	448.27	-915.11	1102.4	141.95	-1038.9	1004.1	281.6	-803.77	720.34	457.34	-692.65	663.25	422.88	-760.23	641.68	436.28	-731.14	748.35	442.62	-688.82	562.69	419.41	-717.91	555.58	295.02	-741.55	377.06	429.41	-678.89	316.36	407.38	-739.72	300.32	423.06	-680.61	394.38	416.95	-737.11	131.87	389.32	-704.76	148.96	312.77	-782.95	93.968	339.58	-765.68	68.644	312.27	-776.35	68.517	373.14	NaN	NaN	NaN	-580.76	83.759	311.37	-521.98	104.8	360.68	-964.97	715.74	121.9	-893.14	615.37	151.45	-961.35	625.4	141.8	-894.65	701.43	125.64	-969.05	522.13	165.45	-967.24	523.2	291	-1059.9	353.08	166.37	-1009.8	256.78	193.02	-1075.4	282.67	183.84	-1005.5	326.73	178.92	-1085	108.41	207.06	-1065	108.78	293.64	-1142.5	79.326	255.76	-1131.8	43.557	284.33	-1135.8	54.808	221	-960.56	40.502	188.64	-943.23	38.696	304.44	-877.86	53.395	256.31	-974.47	1527.2	297.45	-1024.5	1247.1	299.06
100	0.4125	-780.02	1232.1	292.46	-897.73	1469.6	470.34	-911.17	1500.3	137.03	-889.61	1788.4	323.74	-816.74	1022.5	399.71	-815.92	1020.7	169.45	-1019.5	1041.1	328.27	-1015	1045.8	235.24	-865.41	914.14	473.57	-913.26	915.36	105.9	-912.72	1087.3	448.48	-909.96	1101.7	142.18	-1033.5	1003.2	282.03	-798.91	719.45	457.66	-688.01	662.07	422.99	-755.59	640.68	436.66	-726.26	747.29	442.65	-683.8	561.83	419.46	-713.47	554.17	295.23	-732.54	375.22	429.75	-668.58	315.91	407.3	-728.98	298.49	423.27	-672.03	393.96	417.07	-722.33	129.87	389.28	-690.5	147.76	312.59	-767.47	90.934	339.66	-749.58	65.981	312.25	-760.03	65.571	373.2	NaN	NaN	NaN	-565.11	85.586	310.64	-506.65	108.02	359.74	-961.61	715.78	122.19	-890.22	614.94	151.32	-958.18	625.53	141.76	-891.28	701.03	125.59	-966.8	522.13	165.51	-964.52	523.06	291.09	-1058.7	353.42	166.71	-1008.9	256.92	193.08	-1074.4	283.15	184.05	-1005.5	326.17	179.92	-1084.5	108.95	207.33	-1064.6	109.05	293.88	-1142.5	79.694	256.15	-1131.7	43.793	284.66	-1135.8	55.153	221.34	-960.53	40.51	188.68	-943.11	38.607	304.46	-877.68	53.153	256.29	-968.9	1526.5	297.51	-1019	1246.4	299.12
101	0.41667	-774.68	1231.2	292.55	-892.22	1468.8	470.47	-905.5	1499.6	137.17	-884.19	1787.6	323.94	-811.21	1021.9	399.77	-810.69	1019.9	169.46	-1014	1040.3	328.69	-1009.5	1044.9	235.7	-859.76	913.5	473.74	-908.43	914.79	106.07	-907.2	1086.6	448.71	-904.8	1100.9	142.42	-1028.1	1002.4	282.47	-794.06	718.49	458.03	-683.41	660.83	423.13	-750.97	639.62	437.07	-721.41	746.18	442.73	-678.82	560.9	419.51	-709.06	552.73	295.43	-723.67	373.45	430.07	-658.47	315.52	407.23	-718.45	296.76	423.48	-663.6	393.54	417.18	-707.84	128.04	389.23	-676.58	146.69	312.39	-752.3	88.097	339.74	-733.8	63.511	312.22	-744.02	62.833	373.26	NaN	NaN	NaN	-549.87	87.521	309.89	-491.74	111.33	358.76	-958.22	715.78	122.49	-887.24	614.5	151.19	-954.95	625.65	141.73	-887.86	700.62	125.54	-964.47	522.1	165.59	-961.72	522.9	291.2	-1057.5	353.76	167.08	-1007.9	257.06	193.16	-1073.3	283.63	184.27	-1005.5	325.56	181.01	-1084	109.5	207.61	-1064.2	109.34	294.12	-1142.4	80.108	256.53	-1131.5	44.068	284.98	-1135.6	55.53	221.68	-960.51	40.516	188.72	-942.99	38.519	304.49	-877.49	52.908	256.26	-963.34	1525.7	297.59	-1013.6	1245.6	299.21
102	0.42083	-769.33	1230.3	292.65	-886.7	1467.9	470.62	-899.84	1498.8	137.33	-878.77	1786.8	324.15	-805.65	1021.2	399.83	-805.43	1019.2	169.48	-1008.5	1039.4	329.12	-1004	1044.1	236.18	-854.1	912.81	473.92	-903.59	914.2	106.24	-901.63	1085.8	448.94	-899.61	1100.1	142.67	-1022.6	1001.5	282.91	-789.23	717.49	458.45	-678.81	659.54	423.28	-746.36	638.51	437.51	-716.57	745.01	442.86	-673.86	559.91	419.56	-704.67	551.26	295.61	-714.95	371.74	430.39	-648.59	315.16	407.16	-708.13	295.11	423.68	-655.34	393.13	417.27	-693.68	126.39	389.17	-663.04	145.76	312.18	-737.47	85.449	339.81	-718.38	61.223	312.2	-728.36	60.295	373.32	NaN	NaN	NaN	-535.07	89.535	309.11	-477.28	114.69	357.76	-954.79	715.76	122.81	-884.19	614.04	151.05	-951.65	625.74	141.71	-884.38	700.19	125.49	-962.05	522.05	165.68	-958.81	522.72	291.32	-1056.2	354.1	167.46	-1006.9	257.18	193.25	-1072.2	284.09	184.53	-1005.5	324.91	182.16	-1083.5	110.07	207.88	-1063.7	109.65	294.36	-1142.3	80.571	256.91	-1131.3	44.384	285.3	-1135.5	55.943	222.02	-960.48	40.519	188.76	-942.86	38.432	304.51	-877.3	52.659	256.23	-957.79	1524.9	297.68	-1008.2	1244.8	299.31
103	0.425	-763.97	1229.3	292.76	-881.19	1467	470.78	-894.18	1498	137.49	-873.35	1785.9	324.38	-800.07	1020.6	399.9	-800.14	1018.4	169.5	-1002.9	1038.5	329.57	-998.54	1043.2	236.68	-848.45	912.09	474.1	-898.74	913.6	106.41	-896.03	1085	449.17	-894.39	1099.2	142.92	-1017.2	1000.6	283.35	-784.39	716.44	458.9	-674.21	658.22	423.44	-741.75	637.36	437.96	-711.73	743.81	443.02	-668.92	558.89	419.61	-700.29	549.78	295.78	-706.39	370.1	430.68	-638.95	314.84	407.1	-698.04	293.56	423.86	-647.24	392.71	417.36	-679.89	124.89	389.1	-649.89	144.94	311.97	-723	82.982	339.87	-703.35	59.106	312.17	-713.09	57.949	373.36	NaN	NaN	NaN	-520.74	91.6	308.33	-463.3	118.07	356.74	-951.29	715.69	123.14	-881.06	613.56	150.91	-948.28	625.79	141.71	-880.84	699.75	125.44	-959.52	521.98	165.78	-955.81	522.52	291.45	-1054.8	354.42	167.86	-1005.9	257.3	193.36	-1071.1	284.54	184.8	-1005.5	324.24	183.34	-1083.1	110.66	208.16	-1063.3	109.99	294.6	-1142.3	81.087	257.26	-1131.2	44.747	285.6	-1135.4	56.394	222.34	-960.45	40.518	188.8	-942.73	38.349	304.53	-877.11	52.405	256.21	-952.24	1524.1	297.8	-1002.7	1244	299.43
104	0.42917	-758.59	1228.4	292.88	-875.67	1466.1	470.95	-888.52	1497.2	137.67	-867.92	1785.1	324.61	-794.46	1019.8	399.98	-794.84	1017.5	169.53	-997.38	1037.6	330.02	-993.06	1042.4	237.19	-842.78	911.33	474.29	-893.88	912.98	106.58	-890.37	1084.1	449.41	-889.14	1098.4	143.17	-1011.7	999.66	283.79	-779.54	715.35	459.38	-669.61	656.87	423.61	-737.12	636.18	438.42	-706.88	742.57	443.23	-663.98	557.82	419.65	-695.9	548.29	295.93	-698.01	368.52	430.95	-629.55	314.54	407.05	-688.21	292.09	424.02	-639.32	392.29	417.43	-666.49	123.53	389.02	-637.17	144.22	311.75	-708.94	80.687	339.92	-688.75	57.147	312.14	-698.24	55.785	373.39	NaN	NaN	NaN	-506.88	93.685	307.56	-449.81	121.44	355.73	-947.74	715.59	123.49	-877.83	613.07	150.79	-944.85	625.81	141.74	-877.22	699.28	125.4	-956.88	521.89	165.9	-952.69	522.28	291.6	-1053.4	354.74	168.27	-1004.8	257.41	193.47	-1069.9	284.97	185.1	-1005.4	323.57	184.53	-1082.6	111.25	208.44	-1062.8	110.35	294.82	-1142.2	81.656	257.6	-1131	45.16	285.89	-1135.3	56.886	222.64	-960.42	40.511	188.85	-942.59	38.268	304.54	-876.92	52.144	256.19	-946.7	1523.3	297.94	-997.22	1243.2	299.57
105	0.43333	-753.19	1227.4	293.01	-870.16	1465.2	471.13	-882.86	1496.4	137.86	-862.49	1784.2	324.85	-788.82	1019.1	400.08	-789.5	1016.7	169.57	-991.82	1036.7	330.49	-987.56	1041.5	237.72	-837.11	910.54	474.49	-889.01	912.34	106.76	-884.68	1083.3	449.65	-883.86	1097.5	143.42	-1006.1	998.72	284.24	-774.67	714.24	459.88	-664.97	655.51	423.78	-732.48	634.99	438.86	-702	741.32	443.47	-659.06	556.72	419.68	-691.51	546.81	296.06	-689.82	367	431.19	-620.41	314.25	407	-678.64	290.7	424.16	-631.57	391.86	417.48	-653.51	122.31	388.92	-624.88	143.59	311.53	-695.31	78.553	339.95	-674.61	55.335	312.09	-683.86	53.792	373.41	NaN	NaN	NaN	-493.54	95.757	306.79	-436.84	124.75	354.73	-944.1	715.45	123.85	-874.51	612.56	150.67	-941.33	625.78	141.79	-873.52	698.8	125.37	-954.12	521.77	166.04	-949.46	522.02	291.77	-1051.9	355.06	168.69	-1003.7	257.5	193.6	-1068.7	285.4	185.42	-1005	322.94	185.68	-1082.2	111.84	208.71	-1062.3	110.73	295.03	-1142.1	82.279	257.91	-1130.8	45.628	286.17	-1135.1	57.422	222.93	-960.39	40.499	188.9	-942.45	38.191	304.56	-876.72	51.876	256.17	-941.17	1522.5	298.09	-991.73	1242.3	299.72
